<svg width="85" height="109" viewBox="0 0 85 109" fill="none" xmlns="http://www.w3.org/2000/svg">
<path d="M35.5007 25.6663C38.078 25.6663 40.1673 23.577 40.1673 20.9997C40.1673 18.4223 38.078 16.333 35.5007 16.333C32.9233 16.333 30.834 18.4223 30.834 20.9997C30.834 23.577 32.9233 25.6663 35.5007 25.6663Z" fill="#111111"/>
<path d="M46.5827 29.1663C48.1935 29.1663 49.4993 27.8605 49.4993 26.2497C49.4993 24.6388 48.1935 23.333 46.5827 23.333C44.9719 23.333 43.666 24.6388 43.666 26.2497C43.666 27.8605 44.9719 29.1663 46.5827 29.1663Z" fill="#111111"/>
<path d="M47.166 19.833C51.032 19.833 54.166 16.699 54.166 12.833C54.166 8.96701 51.032 5.83301 47.166 5.83301C43.3 5.83301 40.166 8.96701 40.166 12.833C40.166 16.699 43.3 19.833 47.166 19.833Z" fill="#111111"/>
<path d="M17.7081 98.375C14.6977 98.375 12.5573 97.0327 11.2871 94.3481C10.0168 91.6636 10.3273 89.169 12.2185 86.8646L31.8748 62.9583V41.7083H28.3331C27.3296 41.7083 26.4879 41.3683 25.8079 40.6883C25.1279 40.0083 24.7891 39.1678 24.7914 38.1667C24.7914 37.1632 25.1314 36.3215 25.8114 35.6415C26.4914 34.9615 27.332 34.6227 28.3331 34.625H56.6664C57.6699 34.625 58.5117 34.965 59.1916 35.645C59.8716 36.325 60.2105 37.1656 60.2081 38.1667C60.2081 39.1702 59.8681 40.0119 59.1881 40.6919C58.5081 41.3719 57.6676 41.7107 56.6664 41.7083H53.1248V62.9583L72.781 86.8646C74.6699 89.1667 74.9804 91.6612 73.7125 94.3481C72.4446 97.0351 70.3042 98.3774 67.2914 98.375H17.7081ZM17.7081 91.2917H67.2914L46.0414 65.4375V41.7083H38.9581V65.4375L17.7081 91.2917Z" fill="#111111"/>
</svg>
