<svg width="59" height="59" viewBox="0 0 59 59" fill="none" xmlns="http://www.w3.org/2000/svg">
<circle cx="29.5" cy="29.5" r="29.5" fill="#8000FF"/>
<g clip-path="url(#clip0_2454_115)">
<path fill-rule="evenodd" clip-rule="evenodd" d="M28.9993 14.5837C28.5299 14.5836 28.0768 14.4112 27.726 14.0993C27.3752 13.7873 27.151 13.3575 27.0961 12.8912L27.0827 12.667V10.7503C27.0832 10.2618 27.2703 9.79193 27.6056 9.4367C27.941 9.08148 28.3993 8.86771 28.887 8.83908C29.3747 8.81045 29.8549 8.96912 30.2295 9.28266C30.6041 9.59621 30.8449 10.041 30.9026 10.5261L30.916 10.7503V12.667C30.916 13.1753 30.7141 13.6628 30.3546 14.0223C29.9952 14.3817 29.5077 14.5837 28.9993 14.5837ZM38.4868 18.5128C38.1275 18.1534 37.9257 17.666 37.9257 17.1577C37.9257 16.6495 38.1275 16.1621 38.4868 15.8027L39.8419 14.4476C40.0187 14.2645 40.2302 14.1185 40.4641 14.018C40.6979 13.9176 40.9494 13.8647 41.2039 13.8625C41.4584 13.8603 41.7108 13.9088 41.9463 14.0052C42.1819 14.1015 42.3959 14.2439 42.5759 14.4238C42.7558 14.6038 42.8981 14.8178 42.9945 15.0533C43.0909 15.2889 43.1394 15.5413 43.1372 15.7958C43.135 16.0503 43.0821 16.3018 42.9816 16.5356C42.8812 16.7694 42.7352 16.9809 42.5521 17.1577L41.197 18.5128C40.8376 18.8721 40.3502 19.074 39.8419 19.074C39.3337 19.074 38.8463 18.8721 38.4868 18.5128ZM16.8017 18.5128L15.4466 17.1577C15.0975 16.7963 14.9043 16.3121 14.9086 15.8096C14.913 15.307 15.1146 14.8263 15.4699 14.4709C15.8253 14.1156 16.306 13.914 16.8086 13.9096C17.3111 13.9053 17.7953 14.0984 18.1568 14.4476L19.5118 15.8027C19.861 16.1641 20.0542 16.6483 20.0498 17.1508C20.0454 17.6534 19.8439 18.1341 19.4885 18.4895C19.1331 18.8448 18.6524 19.0464 18.1499 19.0508C17.6473 19.0551 17.1632 18.862 16.8017 18.5128ZM27.8168 47.167C26.8823 47.1672 25.9799 46.826 25.2793 46.2077C24.5787 45.5893 24.1281 44.7363 24.0122 43.809L23.2838 37.9823C21.0841 36.7225 19.3624 34.7711 18.3862 32.4316C17.41 30.0922 17.2342 27.4957 17.8861 25.046C18.5379 22.5963 19.9809 20.4306 21.9907 18.8857C24.0005 17.3408 26.4644 16.5032 28.9993 16.5032C31.5343 16.5032 33.9982 17.3408 36.008 18.8857C38.0178 20.4306 39.4608 22.5963 40.1126 25.046C40.7645 27.4957 40.5887 30.0922 39.6125 32.4316C38.6363 34.7711 36.9146 36.7225 34.7148 37.9823L33.9865 43.809C33.8706 44.7363 33.42 45.5893 32.7194 46.2077C32.0188 46.826 31.1164 47.1672 30.1819 47.167H27.8168ZM28.9993 35.667C31.0327 35.667 32.9827 34.8593 34.4205 33.4215C35.8583 31.9837 36.666 30.0337 36.666 28.0003C36.666 25.967 35.8583 24.017 34.4205 22.5792C32.9827 21.1414 31.0327 20.3337 28.9993 20.3337C26.966 20.3337 25.016 21.1414 23.5782 22.5792C22.1404 24.017 21.3327 25.967 21.3327 28.0003C21.3327 30.0337 22.1404 31.9837 23.5782 33.4215C25.016 34.8593 26.966 35.667 28.9993 35.667ZM44.3327 29.917C43.8244 29.917 43.3368 29.7151 42.9774 29.3556C42.618 28.9962 42.416 28.5087 42.416 28.0003C42.416 27.492 42.618 27.0045 42.9774 26.645C43.3368 26.2856 43.8244 26.0837 44.3327 26.0837H46.2493C46.7577 26.0837 47.2452 26.2856 47.6046 26.645C47.9641 27.0045 48.166 27.492 48.166 28.0003C48.166 28.5087 47.9641 28.9962 47.6046 29.3556C47.2452 29.7151 46.7577 29.917 46.2493 29.917H44.3327ZM11.7493 29.917C11.241 29.917 10.7535 29.7151 10.3941 29.3556C10.0346 28.9962 9.83268 28.5087 9.83268 28.0003C9.83268 27.492 10.0346 27.0045 10.3941 26.645C10.7535 26.2856 11.241 26.0837 11.7493 26.0837H13.666C14.1743 26.0837 14.6619 26.2856 15.0213 26.645C15.3808 27.0045 15.5827 27.492 15.5827 28.0003C15.5827 28.5087 15.3808 28.9962 15.0213 29.3556C14.6619 29.7151 14.1743 29.917 13.666 29.917H11.7493ZM15.4466 41.5512C15.0873 41.1917 14.8854 40.7043 14.8854 40.1961C14.8854 39.6878 15.0873 39.2004 15.4466 38.841L16.8017 37.4859C16.9785 37.3028 17.19 37.1568 17.4238 37.0564C17.6577 36.9559 17.9092 36.9031 18.1637 36.9008C18.4182 36.8986 18.6705 36.9471 18.9061 37.0435C19.1416 37.1399 19.3556 37.2822 19.5356 37.4622C19.7156 37.6421 19.8579 37.8561 19.9543 38.0917C20.0506 38.3272 20.0991 38.5796 20.0969 38.8341C20.0947 39.0886 20.0418 39.3401 19.9414 39.5739C19.8409 39.8078 19.6949 40.0193 19.5118 40.1961L18.1568 41.5512C17.7973 41.9105 17.3099 42.1123 16.8017 42.1123C16.2935 42.1123 15.806 41.9105 15.4466 41.5512ZM39.8419 41.5512L38.4868 40.1961C38.1463 39.833 37.9605 39.3516 37.9685 38.8539C37.9766 38.3562 38.178 37.8811 38.5302 37.5292C38.8823 37.1774 39.3575 36.9763 39.8552 36.9686C40.3529 36.9608 40.8341 37.1471 41.197 37.4878L42.5521 38.8429C42.8926 39.206 43.0785 39.6874 43.0704 40.1851C43.0623 40.6828 42.8609 41.1579 42.5088 41.5097C42.1567 41.8616 41.6815 42.0627 41.1837 42.0704C40.686 42.0781 40.2048 41.8919 39.8419 41.5512ZM27.8168 43.3337H30.1819L30.6611 39.5003H27.3376L27.8168 43.3337Z" fill="white"/>
</g>
<defs>
<clipPath id="clip0_2454_115">
<rect width="46" height="46" fill="white" transform="matrix(-1 0 0 -1 52 51)"/>
</clipPath>
</defs>
</svg>
