<svg width="59" height="59" viewBox="0 0 59 59" fill="none" xmlns="http://www.w3.org/2000/svg">
<circle cx="29.5" cy="29.5" r="29.5" fill="#8000FF"/>
<path d="M25.6136 36.2784V35.7955C25.6231 34.1383 25.7699 32.8172 26.054 31.8324C26.3475 30.8475 26.7737 30.0521 27.3324 29.446C27.8911 28.84 28.5634 28.2907 29.3494 27.7983C29.9366 27.4195 30.4621 27.0265 30.9261 26.6193C31.3902 26.2121 31.7595 25.7623 32.0341 25.2699C32.3087 24.768 32.446 24.2093 32.446 23.5938C32.446 22.9403 32.2898 22.3674 31.9773 21.875C31.6648 21.3826 31.2434 21.0038 30.7131 20.7386C30.1922 20.4735 29.6146 20.3409 28.9801 20.3409C28.3646 20.3409 27.7822 20.4782 27.233 20.7528C26.6837 21.018 26.2339 21.4157 25.8835 21.946C25.5331 22.4669 25.3438 23.1155 25.3153 23.892H19.5199C19.5672 21.9981 20.0218 20.4356 20.8835 19.2045C21.7453 17.964 22.8864 17.0407 24.3068 16.4347C25.7273 15.8191 27.2945 15.5114 29.0085 15.5114C30.893 15.5114 32.5597 15.8239 34.0085 16.4489C35.4574 17.0644 36.5938 17.9593 37.4176 19.1335C38.2415 20.3078 38.6534 21.7235 38.6534 23.3807C38.6534 24.4886 38.4688 25.4735 38.0994 26.3352C37.7396 27.1875 37.233 27.9451 36.5795 28.608C35.9261 29.2614 35.1544 29.8532 34.2642 30.3835C33.5161 30.8286 32.9006 31.2926 32.4176 31.7756C31.9441 32.2585 31.589 32.8172 31.3523 33.4517C31.125 34.0862 31.0066 34.8674 30.9972 35.7955V36.2784H25.6136ZM28.4261 45.3693C27.4792 45.3693 26.6695 45.0379 25.9972 44.375C25.3343 43.7027 25.0076 42.8977 25.017 41.9602C25.0076 41.0322 25.3343 40.2367 25.9972 39.5739C26.6695 38.911 27.4792 38.5795 28.4261 38.5795C29.3258 38.5795 30.1165 38.911 30.7983 39.5739C31.4801 40.2367 31.8258 41.0322 31.8352 41.9602C31.8258 42.5852 31.66 43.1581 31.3381 43.679C31.0256 44.1903 30.6136 44.6023 30.1023 44.9148C29.5909 45.2178 29.0322 45.3693 28.4261 45.3693Z" fill="white"/>
</svg>
