<svg width="78" height="78" viewBox="0 0 78 78" fill="none" xmlns="http://www.w3.org/2000/svg">
<path d="M39 13C42.4478 13 45.7544 14.3696 48.1924 16.8076C50.6304 19.2456 52 22.5522 52 26C52 29.4478 50.6304 32.7544 48.1924 35.1924C45.7544 37.6304 42.4478 39 39 39C35.5522 39 32.2456 37.6304 29.8076 35.1924C27.3696 32.7544 26 29.4478 26 26C26 22.5522 27.3696 19.2456 29.8076 16.8076C32.2456 14.3696 35.5522 13 39 13ZM39 45.5C53.365 45.5 65 51.3175 65 58.5V65H13V58.5C13 51.3175 24.635 45.5 39 45.5Z" fill="#111111"/>
</svg>
